<?xml version="1.0" standalone="no"?>
<!DOCTYPE svg PUBLIC "-//W3C//DTD SVG 20010904//EN"
 "http://www.w3.org/TR/2001/REC-SVG-20010904/DTD/svg10.dtd">
<svg version="1.0" xmlns="http://www.w3.org/2000/svg"
 width="500.000000pt" height="500.000000pt" viewBox="0 0 500.000000 500.000000"
 preserveAspectRatio="xMidYMid meet">

<g transform="translate(0.000000,500.000000) scale(0.100000,-0.100000)"
fill="#000000" stroke="none">
<path d="M1643 3080 c-120 -25 -217 -120 -251 -244 l-11 -38 32 37 c55 63 149
57 194 -12 16 -24 19 -64 23 -348 l5 -320 28 -57 c15 -31 46 -73 69 -93 133
-120 323 -120 456 0 40 36 84 112 96 168 6 27 6 27 -27 -9 -62 -68 -168 -51
-203 32 -12 28 -14 90 -14 327 2 274 0 295 -20 348 -55 148 -224 241 -377 209z"/>
<path d="M2291 3074 c-69 -18 -108 -43 -159 -98 -39 -42 -65 -90 -78 -143 -6
-23 -5 -22 24 6 53 53 127 54 178 0 l29 -30 5 -322 5 -322 27 -55 c35 -71 97
-133 167 -167 46 -22 70 -27 136 -27 68 0 89 4 135 28 93 47 164 131 186 221
l7 30 -30 -32 c-52 -55 -127 -56 -179 -2 l-29 30 -5 322 -5 322 -28 57 c-50
101 -129 164 -235 187 -66 14 -84 13 -151 -5z"/>
<path d="M2959 3077 c-123 -35 -214 -129 -243 -250 -6 -27 -6 -27 27 9 62 68
168 51 203 -32 12 -28 14 -90 14 -327 -2 -274 0 -295 20 -348 29 -79 87 -141
168 -181 58 -29 76 -33 142 -32 129 1 234 65 289 176 40 79 41 101 2 64 -55
-53 -147 -42 -188 21 -16 24 -19 64 -23 348 l-5 320 -28 57 c-66 135 -238 215
-378 175z"/>
</g>
</svg>
